<?xml version="1.0" encoding="UTF-8" standalone="no"?>
<svg
   xmlns:dc="http://purl.org/dc/elements/1.1/"
   xmlns:cc="http://creativecommons.org/ns#"
   xmlns:rdf="http://www.w3.org/1999/02/22-rdf-syntax-ns#"
   xmlns:svg="http://www.w3.org/2000/svg"
   xmlns="http://www.w3.org/2000/svg"
   height="500"
   width="2000"
   xml:space="preserve"
   viewBox="0 0 2000 500.00001"
   y="0px"
   x="0px"
   id="Capa_1"
   version="1.1"><metadata
     id="metadata39"><rdf:RDF><cc:Work
         rdf:about=""><dc:format>image/svg+xml</dc:format><dc:type
           rdf:resource="http://purl.org/dc/dcmitype/StillImage" /><dc:title></dc:title></cc:Work></rdf:RDF></metadata><defs
     id="defs37" /><g
     transform="translate(0,7.82901)"
     id="g5" /><g
     transform="translate(0,7.82901)"
     id="g7" /><g
     transform="translate(0,7.82901)"
     id="g9" /><g
     transform="translate(0,7.82901)"
     id="g11" /><g
     transform="translate(0,7.82901)"
     id="g13" /><g
     transform="translate(0,7.82901)"
     id="g15" /><g
     transform="translate(0,7.82901)"
     id="g17" /><g
     transform="translate(0,7.82901)"
     id="g19" /><g
     transform="translate(0,7.82901)"
     id="g21" /><g
     transform="translate(0,7.82901)"
     id="g23" /><g
     transform="translate(0,7.82901)"
     id="g25" /><g
     transform="translate(0,7.82901)"
     id="g27" /><g
     transform="translate(0,7.82901)"
     id="g29" /><g
     transform="translate(0,7.82901)"
     id="g31" /><g
     transform="translate(0,7.82901)"
     id="g33" /><path
     d="m 433.35789,371.71158 c 0.48842,22.91461 -22.52469,43.96011 -42.67851,44.38965 -20.15381,0.42955 -29.81653,-19.91954 -30.30492,-42.83415 -0.48833,-22.91463 15.45361,-41.83879 35.60743,-42.26833 20.15382,-0.42955 36.88762,17.79821 37.376,40.71283 z m 7.06639,-12.19709 c -3.9015,39.3482 -49.33125,70.41477 -62.22696,65.94 -12.89572,-4.47478 -14.6238,-67.58629 19.77008,-87.09435 28.47916,-16.15326 10.91018,-20.5625 22.43666,-24.55948 12.18593,-4.22566 24.39744,1.56778 20.02022,45.71383 z m -131.39285,59.26917 c 0,15.88132 -33.58205,24.87411 -58.25054,21.95998 -36.47341,-4.30866 -49.37652,-12.24462 -35.59221,-23.02064 12.51177,-9.7812 24.0259,-27.69502 48.86592,-27.69502 24.84002,0 44.97683,12.87436 44.97683,28.75568 z m 82.73764,39.48934 c 3.22377,8.58681 -22.80504,31.59647 -35.69483,35.55129 -21.60077,6.62751 -44.18732,0.11272 -48.80974,-13.36935 -4.62241,-13.48206 32.03378,-8.09078 50.90867,-14.56217 18.87489,-6.47139 28.58646,-20.96287 33.5959,-7.61977 z m -46.94749,10.90493 c 3.09849,13.91158 -3.75301,12.02024 -23.29054,16.07303 -25.88854,5.37023 -27.79561,-9.55999 -28.12904,-22.50566 -0.45032,-17.48384 10.06123,-13.66205 16.46274,-20.9769 12.53182,-14.31982 31.85835,13.49795 34.95684,27.40953 z m -148.60088,1.9558 c 0,14.25247 -15.20916,25.09587 -43.2,20.50308 -19.69016,-3.2308 -29.05786,-6.25061 -29.05786,-20.50308 0,-14.25247 16.17547,-25.80638 36.12893,-25.80638 19.95346,0 36.12893,11.55391 36.12893,25.80638 z M 155.66782,446.802 c 0,14.25247 -17.99375,34.12838 -36.12893,25.80638 -9.48277,-4.35152 -15.85159,-22.86289 -14.60843,-35.191 1.4421,-14.30102 10.11794,-13.99799 14.60843,-16.42176 17.55895,-9.47755 36.12893,11.55391 36.12893,25.80638 z m 217.60353,-9.73162 c 2.57718,34.33032 -5.87099,59.24542 -27.50445,56.883 -21.63346,-2.36243 -37.42729,-42.58879 -43.83724,-66.43809 -8.93577,-33.24703 5.87098,-59.24543 27.50444,-56.88302 21.63347,2.36242 41.26007,32.10778 43.83725,66.43811 z m 14.38998,-6.39518 c 15.19357,33.43256 -5.05925,48.41832 -14.42297,55.1759 -17.64663,12.73516 -30.01743,-11.20829 -32.59461,-45.53862 -2.57718,-34.33032 12.87129,-60.24816 34.50445,-57.883 21.62512,2.36428 -16.34024,-15.24441 12.51313,48.24572 z m -181.55548,23.75126 c -11.44183,44.87144 -39.97304,37.02061 -53.52837,36.8869 -23.09363,-0.2278 -18.01843,-49.66178 0.73528,-79.59448 18.75371,-29.93271 48.8303,-42.82755 67.17794,-28.80143 18.34763,14.02612 -6.27951,39.7223 -14.38485,71.50901 z m -22.52244,-15.40752 c -17.00725,29.9327 -44.28291,42.82754 -60.9219,28.80143 -16.63899,-14.02611 -4.71092,-10.97834 16.09103,-64.93764 12.38362,-32.12256 -32.66269,-66.869 -16.0237,-52.84289 16.63898,14.02612 77.86182,59.0464 60.85457,88.9791 z m 74.63011,-305.09479 c -10.76609,30.58929 -52.71156,58.28322 -64.75612,50.48175 -12.04457,-7.80147 2.94248,-48.57447 21.13888,-78.7334 18.1964,-30.158929 37.81295,-78.181828 49.85752,-70.380352 12.04456,7.801472 7.40984,59.848418 -6.24028,98.632002 z m -21.21914,-14.27614 c -12.23473,27.05849 -34.69058,44.62454 -50.28855,39.63979 -15.69057,-5.01434 -19.61895,-29.1229 1.25468,-56.26244 14.55107,-18.919052 33.1689,-45.358577 43.05122,-41.725014 12.97914,4.772212 18.21738,31.289179 5.98265,58.347664 z m 20.33647,-1.13798 c -19.46008,49.95196 -63.40586,74.83536 -78.14645,65.6198 -14.74059,-9.21555 3.22742,-49.90071 24.76605,-98.99226 C 225.65623,35.665057 231.62888,5.9509214 246.09689,8.5177646 267.61392,12.33521 279.72974,61.014464 257.33085,118.51003 Z M 119.16841,66.018341 c 10.06217,19.974241 24.9253,76.676619 12.79897,78.083489 -12.33725,1.43133 -35.193504,-10.08375 -42.037553,-38.59312 -6.84405,-28.509372 0.195909,-65.126012 9.474887,-56.870276 27.461886,24.433519 2.290826,-17.305192 19.763696,17.379907 z m -2.89219,44.038089 c 0,35.02035 -2.22381,72.40995 -16.06906,72.40995 -13.845255,0 -34.069046,-37.3896 -34.069051,-72.40995 -2e-6,-35.020352 11.223796,-63.40996 25.069052,-63.409961 13.845259,-1e-6 25.069059,28.389608 25.069059,63.409961 z m 9.28906,-23.707852 c 12.66293,41.335532 3.33894,80.288292 -12.40101,83.363072 C 97.424316,172.78643 74.945338,151.88301 66.656753,109.45336 58.368169,67.0237 69.513444,3.1735564 85.532421,2.4036546 103.48435,1.540852 112.11543,42.444278 125.56528,86.348578 Z M 407.31904,340.66567 c 6.55058,56.63521 -50.17326,97.48813 -135.40449,97.48813 -85.23123,0 -154.32479,-46.21799 -154.32479,-103.23077 0,-57.01278 63.76673,-68.12421 150.46693,-78.15969 52.83895,-6.11607 133.85001,37.1081 139.26235,83.90233 z m -178.77202,-0.97338 c 0,24.76313 -28.04609,43.27875 -62.56411,44.83761 -34.77757,1.57058 -53.56722,-12.05268 -62.56411,-44.83761 -6.55326,-23.88026 5.15383,-78.01724 39.70704,-78.01724 34.55319,0 85.42118,53.25411 85.42118,78.01724 z m 3.25644,-75.88203 c 0,61.61988 -59.92582,88.89005 -74.9852,86.74469 -45.8001,-6.52469 -81.461347,-69.32789 -79.985192,-118.2086 1.860018,-61.59181 28.107232,-106.41139 71.874622,-106.41139 43.76739,0 90.21819,34.43873 88.09577,108.49662"
     style="opacity:0.9020004;fill:#000000;fill-opacity:1;stroke:none;stroke-width:6;stroke-linejoin:round;stroke-miterlimit:4;stroke-dasharray:none;stroke-dashoffset:0;stroke-opacity:1"
     id="path4296" /><text
     id="text4436"
     y="216"
     x="446"
     style="font-style:normal;font-weight:normal;font-size:40px;line-height:125%;font-family:sans-serif;letter-spacing:0px;word-spacing:0px;fill:#000000;fill-opacity:1;stroke:none;stroke-width:1px;stroke-linecap:butt;stroke-linejoin:miter;stroke-opacity:1"
     xml:space="preserve"><tspan
       style="font-size:202.5px"
       y="216"
       x="446"
       id="tspan4438">RabbitMax Flex</tspan></text>
<flowRoot
     style="font-style:normal;font-weight:normal;font-size:40px;line-height:125%;font-family:sans-serif;letter-spacing:0px;word-spacing:0px;fill:#000000;fill-opacity:1;stroke:none;stroke-width:1px;stroke-linecap:butt;stroke-linejoin:miter;stroke-opacity:1"
     id="flowRoot4440"
     xml:space="preserve"><flowRegion
       id="flowRegion4442"><rect
         y="-30"
         x="626"
         height="54"
         width="26"
         id="rect4444" /></flowRegion><flowPara
       id="flowPara4446"></flowPara></flowRoot><text
     id="text4448"
     y="334"
     x="460"
     style="font-style:normal;font-weight:normal;font-size:40px;line-height:125%;font-family:sans-serif;letter-spacing:0px;word-spacing:0px;fill:#000000;fill-opacity:1;stroke:none;stroke-width:1px;stroke-linecap:butt;stroke-linejoin:miter;stroke-opacity:1"
     xml:space="preserve"><tspan
       style="font-size:90px"
       y="334"
       x="460"
       id="tspan4450">Rev 1.0 (c) 2016</tspan><tspan
       id="tspan4452"
       style="font-size:90px"
       y="446.5"
       x="460">http://rabbitmax.com</tspan></text>
</svg>