<?xml version="1.0" encoding="UTF-8" standalone="no"?>
<!-- Created with Inkscape (http://www.inkscape.org/) -->

<svg
   xmlns:dc="http://purl.org/dc/elements/1.1/"
   xmlns:cc="http://creativecommons.org/ns#"
   xmlns:rdf="http://www.w3.org/1999/02/22-rdf-syntax-ns#"
   xmlns:svg="http://www.w3.org/2000/svg"
   xmlns="http://www.w3.org/2000/svg"
   xmlns:sodipodi="http://sodipodi.sourceforge.net/DTD/sodipodi-0.dtd"
   xmlns:inkscape="http://www.inkscape.org/namespaces/inkscape"
   width="400"
   height="500"
   viewBox="0 0 399.99999 499.99998"
   id="svg2"
   version="1.1"
   inkscape:version="0.91 r13725"
   sodipodi:docname="rabbit.svg"
   inkscape:export-filename="/home/leon/Pictures/rabbit.png"
   inkscape:export-xdpi="90"
   inkscape:export-ydpi="90">
  <title
     id="title4176">Rabbit</title>
  <defs
     id="defs4" />
  <sodipodi:namedview
     id="base"
     pagecolor="#ffffff"
     bordercolor="#666666"
     borderopacity="1.0"
     inkscape:pageopacity="0.0"
     inkscape:pageshadow="2"
     inkscape:zoom="0.70710678"
     inkscape:cx="-119.91924"
     inkscape:cy="298.4357"
     inkscape:document-units="px"
     inkscape:current-layer="layer6"
     showgrid="true"
     showguides="true"
     units="px"
     inkscape:window-width="1301"
     inkscape:window-height="744"
     inkscape:window-x="65"
     inkscape:window-y="24"
     inkscape:window-maximized="1">
    <inkscape:grid
       type="xygrid"
       id="grid4143"
       empspacing="2"
       spacingx="9.9999998"
       spacingy="19.999999" />
  </sodipodi:namedview>
  <metadata
     id="metadata7">
    <rdf:RDF>
      <cc:Work
         rdf:about="">
        <dc:format>image/svg+xml</dc:format>
        <dc:type
           rdf:resource="http://purl.org/dc/dcmitype/StillImage" />
        <dc:title>Rabbit</dc:title>
        <dc:creator>
          <cc:Agent>
            <dc:title>Leon Anavi</dc:title>
          </cc:Agent>
        </dc:creator>
        <dc:publisher>
          <cc:Agent>
            <dc:title>Leon Anavi</dc:title>
          </cc:Agent>
        </dc:publisher>
      </cc:Work>
    </rdf:RDF>
  </metadata>
  <g
     inkscape:label="Layer 1"
     inkscape:groupmode="layer"
     id="layer1"
     transform="translate(0,-552.36225)"
     style="display:none"
     sodipodi:insensitive="true">
    <ellipse
       style="fill:none;fill-opacity:1;stroke:#505050;stroke-width:6.46967173;stroke-miterlimit:4;stroke-dasharray:none;stroke-opacity:1"
       id="path3339"
       cx="199.71423"
       cy="963.63977"
       rx="154.94104"
       ry="68.234947" />
    <ellipse
       style="fill:none;fill-opacity:1;stroke:#505050;stroke-width:6.82027531;stroke-miterlimit:4;stroke-dasharray:none;stroke-opacity:1"
       id="path4141"
       cx="200.69241"
       cy="865.76038"
       rx="104.66193"
       ry="103.84524" />
    <ellipse
       style="fill:none;fill-opacity:1;stroke:#505050;stroke-width:7.55663776;stroke-miterlimit:4;stroke-dasharray:none;stroke-opacity:1"
       id="path4141-2"
       cx="242.63876"
       cy="924.17499"
       rx="78.557556"
       ry="61.71027"
       transform="matrix(0.98657606,0.16330243,-0.12865903,0.99168889,0,0)" />
    <ellipse
       style="fill:none;fill-opacity:1;stroke:#505050;stroke-width:7.55663776;stroke-miterlimit:4;stroke-dasharray:none;stroke-opacity:1"
       id="path4141-2-2"
       cx="152.82683"
       cy="-991.45758"
       rx="78.557556"
       ry="61.71027"
       transform="matrix(0.98657606,-0.16330243,-0.12865903,-0.99168889,0,0)" />
  </g>
  <g
     inkscape:groupmode="layer"
     id="layer8"
     inkscape:label="ears"
     transform="translate(0,100)"
     style="display:inline"
     sodipodi:insensitive="true">
    <path
       style="fill:#3c3c3c;fill-opacity:1;fill-rule:evenodd;stroke:#000000;stroke-width:8;stroke-linecap:butt;stroke-linejoin:miter;stroke-miterlimit:4;stroke-dasharray:none;stroke-opacity:1"
       d="M 148.64978,128.08091 C 124.98846,104.51403 118.98631,24.288648 71.613253,13.937528 64.81548,17.662628 58.52754,16.465931 51.729766,38.094111 l -10.19666,23.567394 c -5.289159,12.203929 -12.363312,9.968161 -20.39332,0 C 13.094109,46.429776 16.117884,33.025523 17.123235,19.288046 18.242012,13.131235 19.421294,6.8345756 23.199824,-5.4696848 33.59269,-23.83876 30.907521,-23.183424 44.519639,-37.369418 c 15.7622,-14.240225 35.570308,-19.814855 54.073355,-2.380665 l 18.229756,23.328129 c 30.60436,52.00231 45.55349,97.220168 54.2804,139.741534 z"
       id="path4770"
       inkscape:connector-curvature="0"
       sodipodi:nodetypes="cccccccccccc" />
    <path
       style="fill:#3c3c3c;fill-opacity:1;fill-rule:evenodd;stroke:#000000;stroke-width:8;stroke-linecap:butt;stroke-linejoin:miter;stroke-miterlimit:4;stroke-dasharray:none;stroke-opacity:1"
       d="m 220.43797,117.78655 c -0.25813,-34.263865 2.98268,-77.786565 9.29607,-119.151846 10.26596,-58.848733 30.521,-71.716891 59.1399,-82.1381 23.14947,-8.232524 76.97481,-17.729684 82.74174,15.379104 C 374.65899,-32.112227 320,-60.000015 285.77712,-11.174125 260,39.999985 248.46078,70.099804 248.85483,110.69542 l 0,0 0,0 -6.90876,15.12475 z"
       id="path4772"
       inkscape:connector-curvature="0"
       sodipodi:nodetypes="cccccccccc" />
  </g>
  <g
     inkscape:groupmode="layer"
     id="layer7"
     inkscape:label="face-upper"
     style="display:inline"
     transform="translate(0,100)"
     sodipodi:insensitive="true">
    <path
       style="display:inline;fill:#3c3d3d;fill-opacity:1;stroke:#000000;stroke-width:6.82027578;stroke-miterlimit:4;stroke-dasharray:none;stroke-opacity:1"
       id="path4141-6"
       sodipodi:type="arc"
       sodipodi:cx="199.6823"
       sodipodi:cy="215.54106"
       sodipodi:rx="114.6966"
       sodipodi:ry="115.02766"
       sodipodi:start="2.8629263"
       sodipodi:end="0.2559808"
       d="m 89.410329,247.18214 a 114.6966,115.02766 0 0 1 43.251751,-124.9882 114.6966,115.02766 0 0 1 131.91184,-1.50063 114.6966,115.02766 0 0 1 46.06764,123.97211"
       sodipodi:open="true" />
    <rect
       style="fill:#3c3d3d;fill-opacity:1;stroke:none;stroke-width:8;stroke-linejoin:round;stroke-miterlimit:4;stroke-dasharray:none;stroke-dashoffset:0;stroke-opacity:1"
       id="rect4701"
       width="200"
       height="80"
       x="100"
       y="239.99998" />
    <rect
       style="fill:#3c3c3c;fill-opacity:1;stroke:none;stroke-width:8;stroke-linejoin:round;stroke-miterlimit:4;stroke-dasharray:none;stroke-dashoffset:0;stroke-opacity:1"
       id="rect4776"
       width="23.648865"
       height="22.04266"
       x="-182.83038"
       y="69.871559"
       transform="matrix(-0.48979587,-0.87183715,0.91463322,-0.40428465,0,0)" />
    <rect
       style="display:inline;fill:#3c3c3c;fill-opacity:1;stroke:none;stroke-width:8;stroke-linejoin:round;stroke-miterlimit:4;stroke-dasharray:none;stroke-dashoffset:0;stroke-opacity:1"
       id="rect4776-9"
       width="23.635275"
       height="18.582056"
       x="-78.878723"
       y="233.37744"
       transform="matrix(0.05221896,-0.99863566,0.98244287,0.1865637,0,0)" />
  </g>
  <g
     inkscape:groupmode="layer"
     id="layer5"
     inkscape:label="eyes"
     transform="translate(0,100)"
     sodipodi:insensitive="true">
    <g
       id="g4693"
       transform="translate(-4,3.9217293)">
      <ellipse
         transform="matrix(0.99515973,-0.09827058,0.09827058,0.99515973,0,0)"
         ry="56.795513"
         rx="26.081226"
         cy="217.99338"
         cx="141.8356"
         id="path4225"
         style="fill:#ffffff;fill-opacity:1;stroke:#000000;stroke-width:8;stroke-miterlimit:4;stroke-dasharray:none;stroke-opacity:1" />
      <circle
         transform="matrix(0.99515973,-0.09827058,0.09827058,0.99515973,0,0)"
         r="22.5"
         cy="249.77914"
         cx="141.47845"
         id="path4227"
         style="fill:#000000;fill-opacity:1;stroke:none;stroke-width:8;stroke-miterlimit:4;stroke-dasharray:none;stroke-opacity:1" />
    </g>
    <g
       id="g4709"
       transform="translate(4,-2)">
      <ellipse
         transform="matrix(-0.99515973,-0.09827058,-0.09827058,0.99515973,0,0)"
         ry="56.795513"
         rx="26.081226"
         cy="184.59225"
         cx="-256.66803"
         id="path4225-7"
         style="fill:#ffffff;fill-opacity:1;stroke:#000000;stroke-width:8;stroke-miterlimit:4;stroke-dasharray:none;stroke-opacity:1" />
      <circle
         transform="matrix(-0.99515973,-0.09827058,-0.09827058,0.99515973,0,0)"
         r="22.5"
         cy="213.89694"
         cx="-256.78018"
         id="path4227-1"
         style="fill:#000000;fill-opacity:1;stroke:none;stroke-width:8;stroke-miterlimit:4;stroke-dasharray:none;stroke-opacity:1" />
    </g>
  </g>
  <g
     inkscape:groupmode="layer"
     id="layer4"
     inkscape:label="face"
     style="display:inline"
     transform="translate(0,100)"
     sodipodi:insensitive="true">
    <path
       style="display:inline;fill:#ffffff;fill-opacity:1;stroke:#000000;stroke-width:8;stroke-miterlimit:4;stroke-dasharray:none;stroke-opacity:1"
       id="path3339-0"
       sodipodi:type="arc"
       sodipodi:cx="199.791"
       sodipodi:cy="308.10965"
       sodipodi:rx="153.99289"
       sodipodi:ry="67.978767"
       sodipodi:start="0"
       sodipodi:end="3.1415927"
       sodipodi:open="true"
       d="m 353.78389,308.10965 a 153.99289,67.978767 0 0 1 -76.99645,58.87134 153.99289,67.978767 0 0 1 -153.99289,0 153.99289,67.978767 0 0 1 -76.996439,-58.87134" />
    <path
       style="display:inline;fill:#ffffff;fill-opacity:1;stroke:#000000;stroke-width:8.0024538;stroke-miterlimit:4;stroke-dasharray:none;stroke-opacity:1"
       id="path4141-2-2-5"
       transform="matrix(0.98657606,-0.16330243,-0.12865903,-0.99168889,0,0)"
       sodipodi:type="arc"
       sodipodi:cx="236.28575"
       sodipodi:cy="-345.93091"
       sodipodi:rx="78.557556"
       sodipodi:ry="61.71027"
       sodipodi:start="5.9354917"
       sodipodi:end="3.0761973"
       d="m 310.14251,-366.95747 a 78.557556,61.71027 0 0 1 -18.76583,65.01888 78.557556,61.71027 0 0 1 -83.06623,13.67242 78.557556,61.71027 0 0 1 -50.41434,-53.63205"
       sodipodi:open="true" />
    <path
       style="display:inline;fill:#ffffff;fill-opacity:1;stroke:#000000;stroke-width:8.0024538;stroke-miterlimit:4;stroke-dasharray:none;stroke-opacity:1"
       id="path4141-2-2-5-3"
       transform="matrix(-0.98657606,-0.16330243,0.12865903,-0.99168889,0,0)"
       sodipodi:type="arc"
       sodipodi:cx="-159.35213"
       sodipodi:cy="-280.20468"
       sodipodi:rx="78.557556"
       sodipodi:ry="61.71027"
       sodipodi:start="5.8598949"
       sodipodi:end="3.0761973"
       d="m -87.72788,-305.55296 a 78.557556,61.71027 0 0 1 -13.78206,67.10463 78.557556,61.71027 0 0 1 -83.95901,16.44379 78.557556,61.71027 0 0 1 -52.27282,-54.16745"
       sodipodi:open="true" />
    <path
       style="fill:none;fill-rule:evenodd;stroke:#000000;stroke-width:6;stroke-linecap:butt;stroke-linejoin:miter;stroke-miterlimit:4;stroke-dasharray:none;stroke-opacity:1"
       d="m 46.017488,311.4534 4.340023,10.71815"
       id="path4189"
       inkscape:connector-curvature="0" />
    <path
       style="display:inline;fill:none;fill-rule:evenodd;stroke:#000000;stroke-width:6;stroke-linecap:butt;stroke-linejoin:miter;stroke-miterlimit:4;stroke-dasharray:none;stroke-opacity:1"
       d="m 353.6766,306.66506 -2.4782,11.29483"
       id="path4189-4"
       inkscape:connector-curvature="0" />
  </g>
  <g
     inkscape:groupmode="layer"
     id="layer6"
     inkscape:label="teeth"
     style="display:inline"
     transform="translate(0,100)">
    <path
       style="fill:#ffffff;fill-opacity:1;fill-rule:evenodd;stroke:#000000;stroke-width:8;stroke-linecap:butt;stroke-linejoin:round;stroke-miterlimit:4;stroke-dasharray:none;stroke-dashoffset:0;stroke-opacity:1"
       d="m 164.71369,312.53077 70.71544,0 c -3.3674,25.22526 -9.26035,50.4505 -17.67886,75.67579 -10.84813,4.81707 -22.83076,3.80649 -35.35772,0 -7.16315,-25.22529 -13.84266,-50.45053 -17.67886,-75.67579 z"
       id="path4209"
       inkscape:connector-curvature="0"
       sodipodi:nodetypes="ccccc" />
    <path
       style="fill:none;fill-rule:evenodd;stroke:#000000;stroke-width:6;stroke-linecap:butt;stroke-linejoin:miter;stroke-miterlimit:4;stroke-dasharray:none;stroke-opacity:1"
       d="m 198.80865,330.09395 0,61.24764"
       id="path4451"
       inkscape:connector-curvature="0" />
    <path
       style="fill:#ffffff;fill-opacity:1;stroke:none;stroke-width:8;stroke-linejoin:round;stroke-miterlimit:4;stroke-dasharray:none;stroke-dashoffset:0;stroke-opacity:1"
       id="path4721"
       sodipodi:type="arc"
       sodipodi:cx="200.40434"
       sodipodi:cy="232.83249"
       sodipodi:rx="70.152779"
       sodipodi:ry="90"
       sodipodi:start="0.50709843"
       sodipodi:end="2.668591"
       sodipodi:open="true"
       d="M 261.72891,276.54035 A 70.152779,90 0 0 1 199.20841,322.81941 70.152779,90 0 0 1 137.954,273.83293" />
    <path
       style="fill:none;fill-rule:evenodd;stroke:#000000;stroke-width:6;stroke-linecap:butt;stroke-linejoin:miter;stroke-miterlimit:4;stroke-dasharray:none;stroke-opacity:1"
       d="m 5.615145,293.13538 c 49.982782,-7.41562 101.299915,-7.59224 154.049075,0"
       id="path4723"
       inkscape:connector-curvature="0"
       sodipodi:nodetypes="cc" />
    <path
       style="display:inline;fill:none;fill-rule:evenodd;stroke:#000000;stroke-width:6;stroke-linecap:butt;stroke-linejoin:miter;stroke-miterlimit:4;stroke-dasharray:none;stroke-opacity:1"
       d="m 13.83774,269.75524 c 48.438469,0.37263 97.22692,7.09518 146.39099,20.63242"
       id="path4723-7"
       inkscape:connector-curvature="0"
       sodipodi:nodetypes="cc" />
    <path
       style="display:inline;fill:none;fill-rule:evenodd;stroke:#000000;stroke-width:6;stroke-linecap:butt;stroke-linejoin:miter;stroke-miterlimit:4;stroke-dasharray:none;stroke-opacity:1"
       d="m 29.003105,251.09213 c 45.056824,6.71053 89.521135,19.14856 133.349585,37.73332"
       id="path4723-4"
       inkscape:connector-curvature="0"
       sodipodi:nodetypes="cc" />
    <path
       style="display:inline;fill:none;fill-rule:evenodd;stroke:#000000;stroke-width:6;stroke-linecap:butt;stroke-linejoin:miter;stroke-miterlimit:4;stroke-dasharray:none;stroke-opacity:1"
       d="m 398.241,292.15573 c -49.98278,-7.41562 -101.29991,-7.59224 -154.04907,0"
       id="path4723-74"
       inkscape:connector-curvature="0"
       sodipodi:nodetypes="cc" />
    <path
       style="display:inline;fill:none;fill-rule:evenodd;stroke:#000000;stroke-width:6;stroke-linecap:butt;stroke-linejoin:miter;stroke-miterlimit:4;stroke-dasharray:none;stroke-opacity:1"
       d="m 390.01841,268.77559 c -48.43847,0.37263 -97.22692,7.09518 -146.39099,20.63242"
       id="path4723-7-8"
       inkscape:connector-curvature="0"
       sodipodi:nodetypes="cc" />
    <path
       style="display:inline;fill:none;fill-rule:evenodd;stroke:#000000;stroke-width:6;stroke-linecap:butt;stroke-linejoin:miter;stroke-miterlimit:4;stroke-dasharray:none;stroke-opacity:1"
       d="m 374.85304,250.11248 c -45.05682,6.71053 -89.52113,19.14856 -133.34958,37.73332"
       id="path4723-4-8"
       inkscape:connector-curvature="0"
       sodipodi:nodetypes="cc" />
  </g>
  <g
     inkscape:groupmode="layer"
     id="layer2"
     inkscape:label="nose"
     transform="translate(0,-552.36225)"
     style="display:inline">
    <g
       id="g4280"
       transform="translate(-298.57142,55.285715)">
      <path
         d="m 501.43327,905.04021 a 30.08684,30.08684 0 0 1 -28.31479,8.53416 30.08684,30.08684 0 0 1 -21.94234,-19.82657"
         sodipodi:open="true"
         sodipodi:end="2.8193485"
         sodipodi:start="0.76428793"
         sodipodi:ry="30.08684"
         sodipodi:rx="30.08684"
         sodipodi:cy="884.21942"
         sodipodi:cx="479.71432"
         sodipodi:type="arc"
         id="path4254"
         style="fill:none;fill-opacity:1;stroke:#000000;stroke-width:9.82631969;stroke-miterlimit:4;stroke-dasharray:none;stroke-opacity:1" />
      <path
         sodipodi:open="true"
         d="m 550.66359,896.96453 a 33.142872,30.08684 0 0 1 -24.34395,17.55322 33.142872,30.08684 0 0 1 -29.6531,-8.47748"
         sodipodi:end="2.364063"
         sodipodi:start="0.41137472"
         sodipodi:ry="30.08684"
         sodipodi:rx="33.142872"
         sodipodi:cy="884.93372"
         sodipodi:cx="520.28577"
         sodipodi:type="arc"
         id="path4254-4"
         style="display:inline;fill:none;fill-opacity:1;stroke:#000000;stroke-width:9.82631969;stroke-miterlimit:4;stroke-dasharray:none;stroke-opacity:1" />
    </g>
    <path
       style="fill:#000000;fill-opacity:1;fill-rule:evenodd;stroke:#000000;stroke-width:8;stroke-linecap:butt;stroke-linejoin:miter;stroke-miterlimit:4;stroke-dasharray:none;stroke-opacity:1"
       d="m 178.93641,916.36392 c 13.5573,-2.19434 27.79247,-2.19434 42.70551,0 1.69465,10.9717 -0.67787,21.21196 -7.11759,30.72077 -10.30932,6.18771 -19.50249,3.94487 -28.47034,0 -5.28798,-10.24024 -8.58152,-20.48051 -7.11758,-30.72077 z"
       id="path4284"
       inkscape:connector-curvature="0"
       sodipodi:nodetypes="ccccc" />
  </g>
  <g
     inkscape:groupmode="layer"
     id="layer3"
     inkscape:label="hair"
     sodipodi:insensitive="true">
    <path
       style="fill:#3c3c3c;fill-opacity:1;fill-rule:evenodd;stroke:#000000;stroke-width:7.99999952;stroke-linecap:butt;stroke-linejoin:round;stroke-miterlimit:4;stroke-dasharray:none;stroke-opacity:1"
       d="m 165.09878,210.48091 c 8.32235,-18.19252 11.58415,-25.05026 8.6697,-43.3465 8.41441,13.27258 17.1175,17.50368 17.37557,33.91768 5.03751,-13.89787 6.14809,-30.98191 3.5457,-45.63338 20.1517,17.89812 27.37576,36.38717 27.86387,52.36866 l 0,0 0,0"
       id="path4216"
       inkscape:connector-curvature="0"
       sodipodi:nodetypes="ccccccc" />
  </g>
</svg>
